<svg width="166" height="166" viewBox="0 0 166 166" fill="none" xmlns="http://www.w3.org/2000/svg">
<rect width="166" height="166" fill="white"/>
<path d="M91.8958 86.47L89.8958 86.6C88.2174 86.7642 86.5485 87.0146 84.8958 87.35L84.1058 87.52C81.9892 87.9712 79.8492 88.305 77.6958 88.52C77.4058 88.52 75.6958 88.67 74.5058 88.69C75.6258 88.69 76.8658 88.55 77.1158 88.53C79.2692 88.3151 81.4092 87.9812 83.5258 87.53L84.3158 87.36C85.9685 87.0246 87.6374 86.7742 89.3158 86.61C90.0158 86.56 91.1858 86.48 91.8958 86.47Z" fill="#222235"/>
<path d="M134.336 53.09C134.651 53.3906 134.868 53.7789 134.96 54.2047C135.051 54.6304 135.012 55.0738 134.848 55.4771C134.684 55.8805 134.403 56.2253 134.04 56.4665C133.678 56.7078 133.251 56.8344 132.816 56.83H125.316C123.474 56.828 121.681 56.2396 120.196 55.15C110.666 48.15 92.8058 36.7 76.1958 35.15C75.5058 35.09 74.2758 35.01 73.6258 35H73.5058C73.3192 34.9907 73.1323 34.9907 72.9458 35C61.0658 35.58 51.5858 45.14 51.5858 56.8C51.5858 68.8 61.6858 78.64 74.1058 78.64C74.7558 78.64 76.1058 78.55 76.8858 78.5C78.5035 78.346 80.1123 78.109 81.7058 77.79L82.9458 77.55C84.9739 77.1303 87.0237 76.8232 89.0858 76.63C89.3658 76.63 90.9358 76.49 92.0858 76.46H92.6658C97.3372 76.4525 101.957 77.4412 106.216 79.36C111.836 81.8381 116.62 85.8884 119.991 91.0231C123.362 96.1578 125.177 102.158 125.216 108.3C125.216 125.73 110.836 139.92 93.0858 140.13H92.0858C90.8558 140.13 88.7858 139.97 88.5558 139.95C61.2558 137.42 33.1258 113.11 31.9458 112.07C31.7565 111.899 31.5794 111.715 31.4158 111.52C31.1905 111.228 31.0505 110.879 31.0113 110.512C30.9721 110.145 31.0352 109.774 31.1936 109.441C31.3519 109.108 31.5994 108.825 31.9087 108.623C32.2179 108.422 32.5769 108.31 32.9458 108.3H40.9458C42.7769 108.311 44.5566 108.907 46.0258 110C55.5558 117 73.4158 128.46 90.0258 130C90.7258 130.06 92.0258 130.14 92.6358 130.15H93.2958C105.206 129.52 114.686 120 114.686 108.3C114.686 96.3 104.586 86.46 92.1658 86.46H91.8958C91.1858 86.46 90.0158 86.55 89.3558 86.6C87.6774 86.7642 86.0085 87.0146 84.3558 87.35L83.5658 87.52C81.4492 87.9712 79.3092 88.3051 77.1558 88.52C76.9058 88.52 75.6658 88.63 74.5458 88.68H73.5458C68.8577 88.6924 64.221 87.7037 59.9458 85.78C54.3254 83.3019 49.5415 79.2516 46.1704 74.1169C42.7993 68.9822 40.9849 62.9823 40.9458 56.84C40.9458 39.42 55.3558 25.22 73.1058 25H74.1058C75.3258 25 77.4058 25.16 77.6358 25.18C104.946 27.71 133.116 52 134.306 53.06L134.336 53.09Z" fill="#222235" stroke="#222235" stroke-width="2" stroke-miterlimit="10"/>
<path d="M92.1658 76.46C90.9658 76.46 89.3958 76.61 89.1658 76.63C87.1037 76.8232 85.0539 77.1303 83.0258 77.55L81.7558 77.82C80.1623 78.139 78.5535 78.376 76.9358 78.53C76.1958 78.53 74.8058 78.67 74.1558 78.67C74.8658 78.67 75.7958 78.58 76.3558 78.54C77.9735 78.386 79.5823 78.149 81.1758 77.83L82.4458 77.56C84.4739 77.1404 86.5237 76.8332 88.5858 76.64C88.8658 76.62 90.9458 76.46 92.1658 76.46Z" fill="#222235"/>
<path d="M74.1058 64.38C78.2755 64.38 81.6558 60.9998 81.6558 56.83C81.6558 52.6603 78.2755 49.28 74.1058 49.28C69.936 49.28 66.5558 52.6603 66.5558 56.83C66.5558 60.9998 69.936 64.38 74.1058 64.38Z" fill="#222235" stroke="#222235" stroke-width="2" stroke-miterlimit="10"/>
<path d="M92.6058 116.15C96.7755 116.15 100.156 112.77 100.156 108.6C100.156 104.43 96.7755 101.05 92.6058 101.05C88.436 101.05 85.0558 104.43 85.0558 108.6C85.0558 112.77 88.436 116.15 92.6058 116.15Z" fill="#222235" stroke="#222235" stroke-width="2" stroke-miterlimit="10"/>
</svg>
